<?xml version="1.0" encoding="UTF-8"?>
<svg version="1.1" xmlns="http://www.w3.org/2000/svg" width="20" height="20">
<path d="M0 0 C1.65 0.33 3.3 0.66 5 1 C4.67 2.65 4.34 4.3 4 6 C5.65 6.99 7.3 7.98 9 9 C8.67 10.32 8.34 11.64 8 13 C6.68 13.33 5.36 13.66 4 14 C4 14.66 4 15.32 4 16 C1.41704268 17.68885671 0.07142606 18.00291535 -3.0625 17.875 C-6 17 -6 17 -7.875 15.25 C-9.18152386 12.63695229 -9.24038873 10.88466476 -9 8 C-8.360625 7.731875 -7.72125 7.46375 -7.0625 7.1875 C-4.66868314 6.11332248 -4.66868314 6.11332248 -4 3 C-1.9375 2.3125 -1.9375 2.3125 0 2 C0 1.34 0 0.68 0 0 Z M-2 5 C-1 7 -1 7 -1 7 Z M-6 9 C-5.62095792 12.29075996 -5.62095792 12.29075996 -4 15 C-1.54190002 15.2500773 -1.54190002 15.2500773 1 15 C1.66 14.34 2.32 13.68 3 13 C3 11.68 3 10.36 3 9 C0.03 9 -2.94 9 -6 9 Z M5 9 C6 11 6 11 6 11 Z " fill="#dbd7c8" transform="translate(10,1)"/>
</svg>
